<svg width="37" height="39" viewBox="0 0 37 39" fill="none" xmlns="http://www.w3.org/2000/svg">
<path d="M18.6009 0.342346C8.48976 0.342346 0.300171 9.06569 0.300171 19.8245C0.300171 28.4338 5.54334 35.7347 12.8133 38.3087C13.7283 38.4921 14.0639 37.8891 14.0639 37.372C14.0639 36.9094 14.0486 35.6835 14.041 34.0594C8.95033 35.2341 7.87668 31.4457 7.87668 31.4457C7.044 29.1971 5.84072 28.5957 5.84072 28.5957C4.18298 27.388 5.96883 27.4128 5.96883 27.4128C7.80653 27.5483 8.77189 29.4202 8.77189 29.4202C10.4037 32.399 13.0558 31.5382 14.102 31.0409C14.2667 29.7803 14.7379 28.9229 15.261 28.4355C11.1967 27.9481 6.92504 26.2728 6.92504 18.8084C6.92504 16.6821 7.6342 14.944 8.80849 13.581C8.60261 13.0887 7.98496 11.1078 8.96863 8.42466C8.96863 8.42466 10.5013 7.90258 14.0013 10.4221C15.4654 9.98925 17.021 9.77447 18.5765 9.76455C20.1321 9.77447 21.6876 9.98925 23.1517 10.4221C26.6289 7.90258 28.1615 8.42466 28.1615 8.42466C29.1452 11.1078 28.5276 13.0887 28.3445 13.581C29.5112 14.944 30.2204 16.6821 30.2204 18.8084C30.2204 26.2927 25.9426 27.9398 21.8707 28.419C22.5112 29.0038 23.106 30.1983 23.106 32.024C23.106 34.6311 23.0831 36.726 23.0831 37.3587C23.0831 37.8693 23.4033 38.4789 24.3413 38.284C31.6631 35.7264 36.9017 28.4206 36.9017 19.8245C36.9017 9.06569 28.7075 0.342346 18.6009 0.342346Z" fill="white"/>
</svg>
