<svg width="37" height="41" viewBox="0 0 37 41" fill="none" xmlns="http://www.w3.org/2000/svg">
<path d="M36.9631 40.8556V40.854H36.9722V26.2149C36.9722 19.0533 35.5615 13.5366 27.9005 13.5366C24.2176 13.5366 21.7461 15.7453 20.7371 17.8392H20.6306V14.2052H13.3668V40.854H20.9304V27.6585C20.9304 24.1842 21.5331 20.8246 25.4701 20.8246C29.3493 20.8246 29.4071 24.7895 29.4071 27.8814V40.8556H36.9631Z" fill="white"/>
<path d="M1.05054 14.2069H8.62326V40.8556H1.05054V14.2069Z" fill="white"/>
<path d="M4.83384 0.939941C2.41258 0.939941 0.447876 3.08707 0.447876 5.73315C0.447876 8.37923 2.41258 10.5713 4.83384 10.5713C7.25511 10.5713 9.21981 8.37923 9.21981 5.73315C9.21829 3.08707 7.25358 0.939941 4.83384 0.939941V0.939941Z" fill="white"/>
</svg>
